/* XPM */
static char *result[] = {
/* columns rows colors chars-per-pixel */
"32 32 18 1 ",
"  c #101010",
". c #240312",
"X c #28221E",
"o c #490A1E",
"O c #5B3843",
"+ c #595047",
"@ c #6C444C",
"# c #655452",
"$ c #7D595D",
"% c #862B2A",
"& c #A25342",
"* c #7F8F9E",
"= c #928182",
"- c #928684",
"; c #AA9393",
": c #9AA8B2",
"> c #AEA8A8",
", c None",
/* pixels */
",,,,,,,,,,,,,,,,,,,,,,,,,,,,,,,,",
",,,,,,,,,,,&&&&%%o,,,,,,,,,,,,,,",
",,,,,,,,,,&&&&%%ooo,,,,,,,,,,,,,",
",,,,,,,,,,&&&%%%%oo.,,,,,,,,,,,,",
",,,,,,,,,&&oX%%%%%o...,,,,,,,,,,",
",,,,,,,,,&oXX+XX%%%...,,,,,,,,,,",
",,,,,,,,,&oXX$$XXXo....,,,,,,,,,",
",,,,,,,,,&oXX;;XXXX....,,,,,,,,,",
",,,,,,,,,&&X+;;;XXX....,,,,,,,,,",
",,,,,,,,,,,&+;;;;+X....,,,,,,,,,",
",,,,,,,,,,>#X$::*+X..##,,,,,,,,,",
",,,,,,,,,>%X&::*,,,,...###,,,,,,",
",,,,,,,,,>%%::*,,,,o......#,,,,,",
",,,,,,,,>%>+o*,&&%%ooo.....#,,,,",
",,,,,,,,>%>;;&&&&>ooooo....#,,,,",
",,,,,,,,>%>;;&&&>>=ooooo.##,,,,,",
",,,,,,,,,>>$$%&&> =ooo.##O,,,,,,",
",,,,,,,,,,,$,===  ==oo##@O,,,,,,",
",,,,,,,,,,,,,      ===#,@O,,,,,,",
",,,,,,,,,,,,,         ,,@OO,,,,,",
",,,,,,,,,,,,,          ,,@O,,,,,",
",,,,,,,,,,,,            ,,,,,,,,",
",,,,,,,,,,,,            ,,,,,,,,",
",,,,,,,,,,,              ,,,,,,,",
",,,,,,,,,,               ,,,,,,,",
",,,,,,,,,             O  ,,,,,,,",
",,,,,,,,,>$$  ,      OOO ,,,,,,,",
",,,,,,,,,,>- ,,,,    ###,,,,,,,,",
",,,,,,,,,,>-,,,,,,   ,###,,,,,,,",
",,,,,,,,,,>-,,,,,,,,  ,##,,,,,,,",
",,,,,,,,,, -,,,,,,,,,,,,# ,,,,,,",
",,,,,,,,,   ,,,,,,,,,,,   ,,,,,,"
};
