/* XPM */
static char *result[] = {
/* columns rows colors chars-per-pixel */
"32 32 17 1 ",
"  c #101010",
". c #240312",
"X c #490A1E",
"o c #5B3843",
"O c #595047",
"+ c #655452",
"@ c #7D595D",
"# c #525F71",
"$ c #862B2A",
"% c #A25342",
"& c #7F8F9E",
"* c #928182",
"= c #928684",
"- c #AA9393",
"; c #91A1AD",
": c #AEA8A8",
"> c None",
/* pixels */
">>>;;;;;;;;;;;;;;;;>>>>>>>>>>>>>",
">;;;;;;;;;;;;;;>>>>>>>>>>>>>>>>>",
";;;;;;;;;;;;>>>>>>>>>>>>>>>>>>>>",
";;;;;;;;;;;>>>>>>>>>>>>>>>>>>>>>",
";;;;;;;>>>>>%%$$XX>>>>>>>>>>>>>>",
";;;;;>>>>>>%%$$XXX..>>>>>>>>>>>>",
";;;>>>>>>>%%$$$$XX..>>>>>>>>>>>>",
";>>>>>>>>>$$$$$......>>>>>>>>>>>",
">>>>>>>>>>$$XX........>>>>>>>>>>",
">>>>>>>>>>$$XXX.......>>>>>>>>>>",
">>>>>>>>>>$$XXXXX....>>>>>>>>>>>",
">>>>>>>>>>O$$XXXXX...+>>>>>>>>>>",
">>>>>>>>::O$$$$$XXX...++>>>>>>>>",
">>>>>>>:$OO%%$$$$X.....+>>>>>>>>",
">>>>>>:$$O%%$$$$$XX.....+>>>>>>>",
">>>>>>:$$%$$$$XXXXXX....+>>>>>>>",
">>>>>>:$$$$$$XXXXXX.....+>>>>>>>",
">>>>>>::::::XXXXXXX....+>>>>>>>>",
">>>>>----@@*XXX***..+++>>>>>>>>>",
">>>>>-@@@>> ***  *+++oo>>>>>>>>>",
">>>>>>>>>>>          ooo>>>>>>>>",
">>>>>>>>>>>           ooo>>>>>>>",
">>>>>>>>>>             oo&>>>>>>",
">>>>>>>>>               ##&&>>>>",
">>>>>>>>               ;;;##&>>>",
">>>>>>>               ;;;;;;;>>>",
";;>>>>>:@@         o   ;;;;;;>>>",
";;;;;;;:==;  ;;;; =++  ;;;;;>>>>",
";;;;;;;:=;;;;;;;;;;;=++;;;;>>>>>",
";;;;;;;;:=;;;;;;;;;;;=++;;>>>>>>",
";;;;;;;; =;;;;;;;;;;;;;+ >>>>>>>",
">>>>>>>   >>>>>>>>>>>>   >>>>>>>"
};
