/* XPM */
static char *_a0ec5aa867f4a21a0234f569eb595dbDBdwMvEsBQtIhnqY[] = {
/* columns rows colors chars-per-pixel */
"32 32 8 1 ",
"  c #25131A",
". c #3D253B",
"X c #724736",
"o c #523B40",
"O c #895A45",
"+ c #BF704D",
"@ c #90919E",
"# c #ADC1CF",
/* pixels */
"                              ..",
"                              ..",
"OO++++OO++++OO++++OO++++OO++++  ",
"OO++++OO++++OO++++OO++++OO++++  ",
"OO++++OO++++OO++++OO++++OO++++  ",
"OO++++OO++++OO++++OO++++OO++++  ",
"                                ",
"                                ",
"  ##  ooOOOOooOOOOooOOOOooOOOO  ",
"  ##  ooOOOOooOOOOooOOOOooOOOO  ",
"  ##  ooOOOOooOOOOooOOOOooOOOO  ",
"  ##  ooOOOOooOOOOooOOOOooOOOO  ",
"  ##  ooOOOOooOOOOooOOOOooOOOO  ",
"  ##  ooOOOOooOOOOooOOOOooOOOO  ",
"  ##          OOOOooOO  @@####  ",
"  ##          OOOOooOO  @@####  ",
"  @@@@@@######  OOoo  @@####@@  ",
"  @@@@@@######  OOoo  @@####@@  ",
"  @@##      ##  OOooOO          ",
"  @@##      ##  OOooOO          ",
"  ##  oo  @@####  ooOOOOooOOOO  ",
"  ##  oo  @@####  ooOOOOooOOOO  ",
"  ##  oo@@OOoo  ##  OO  @@####  ",
"  ##  oo@@OOoo  ##  OO  @@####  ",
"  ##  oo@@OOoo  @@    @@####@@  ",
"  ##  oo@@OOoo  @@    @@####@@  ",
"  ##  ooOO@@@@@@  ooXX          ",
"  ##  ooOO@@@@@@  ooXX          ",
"  ####  XXXXooXXXXooXXXXooXXXX  ",
"  ####  XXXXooXXXXooXXXXooXXXX  ",
"                                ",
"                                "
};
