/* XPM */
static char *result[] = {
/* columns rows colors chars-per-pixel */
"32 33 18 1 ",
"  c #120022",
". c #320632",
"X c #2C2C2C",
"o c #4D0F0A",
"O c #7D311A",
"+ c #560B28",
"@ c #3F4B4E",
"# c #B05F28",
"$ c #EC8D2F",
"% c #F2BF57",
"& c #2E5887",
"* c #8173A8",
"= c #7E8E93",
"- c #FCDCA0",
"; c #C3CBDB",
": c #FBFFE2",
"> c gray99",
", c None",
/* pixels */
",,,,,,,,,,,,,,,OOOOO,,,,,,,,,,,,",
",,,,,,,,,,,,,OOOOOOoOO,,,,,,,,,,",
",,,,,,,,,,,,,OOOOOoooO,,,,,,,,,,",
",,,,,,,,,,,,OOOOOO$$$oO,,,,,,,,,",
",,,,,,,,,,,,OOOOO$---oO,,,,,,,,,",
",,,,,,,,,,,OOOOO  -- oO,,,,,,,,,",
",,,,,,,,,,,OOOO$:&--&oO,XX,,,,,,",
",,,,,,,,,,,OOOOO-----oO,%X,,,,,,",
",,,,,,,,,,,OOOOO$---$oO%#,,,,,,,",
",,,,,,,,,,,OOOOOO$$ooO%#,,,,,,,,",
",,,,,,,,,,,O##@=O--=@##,,,,,,,,,",
",,,,,,,,,,,%%%X@=$--=@##,,,,,,,,",
",,,,,,,,,,XX%%X@======X#,,,,,,,,",
",,,,,,,,,==XXX@@@=====XX,,,,,,,,",
",,,,,,,,,===X,,@@@@@@XXX,,,,,,,,",
",,,,,,,,,@==,,>@@====XX@@,,,,,,,",
",,,,,,,,==@=,;@@======@@@,,,,,,,",
",,,,,,,,===@>..%:.++.%.@@@,,,,,,",
",,,,,,,,===>>..#%++++#.@  ,,,,,,",
",,,,,,,,  =;.. .+++++.    ,,,,,,",
",,,,,,,,   *.  ++++++  ,  ,,,,,,",
",,,,,,,,  >;.  ++++++  ,,,,,,,,,",
",,,,,,,,>>;;.  +++++   ,,,,,,,,,",
",,,,,,,,>>>.   ++.++  ,,,,,,,,,,",
",,,,,,,,,,,. ##++.++##,,,,,,,,,,",
",,,,,,,,,,,.#%%++.+#%%,,,,,,,,,,",
",,,,,,,,,,,.%%%+...%%%,,,,,,,,,,",
",,,,,,,,,,,@@%%+...@%%,,,,,,,,,,",
",,,,,,,,,,,@@@.....@@,,,,,,,,,,,",
",,,,,,,,,,,==@,,...==,,,,,,,,,,,",
",,,,,,,,,,,==,,,,.,==,,,,,,,,,,,",
",,,,,,,,,,,==,,,,,,==,,,,,,,,,,,",
",,,,,,,,,,,@@,,,,,,=@@,,,,,,,,,,"
};
