/* XPM */
static char *_4bc644ab33e4d0cd0de2b2ffd81d3dcvMjqOquvAs7KYd4u[] = {
/* columns rows colors chars-per-pixel */
"32 32 181 2 ",
"   c None",
".  c black",
"X  c #000003",
"o  c #000004",
"O  c #000005",
"+  c #00000B",
"@  c #00000E",
"#  c #00000F",
"$  c #000010",
"%  c #000011",
"&  c #000012",
"*  c #000013",
"=  c #00001C",
"-  c #00001D",
";  c #150119",
":  c #18051A",
">  c #3B0000",
",  c #3E0000",
"<  c #2C181C",
"1  c #3F281F",
"2  c #461200",
"3  c #542100",
"4  c #482610",
"5  c #4D3314",
"6  c #5E3F16",
"7  c #53391F",
"8  c #5D3F1A",
"9  c #513B22",
"0  c #5D401D",
"q  c #66471C",
"w  c #69491D",
"e  c #5F4528",
"r  c #664720",
"t  c #604727",
"y  c #654826",
"u  c #61482A",
"i  c #674B29",
"p  c #694C29",
"a  c #6A4E2A",
"s  c #6B4E2A",
"d  c #6C4F2A",
"f  c #695226",
"g  c #6E512B",
"h  c #69542D",
"j  c #69552D",
"k  c #6C572E",
"l  c #7A5923",
"z  c #72562E",
"x  c #75562E",
"c  c #775F2F",
"v  c #67553F",
"b  c #775B30",
"n  c #7E652C",
"m  c #7D642E",
"M  c #7B6234",
"N  c #7F6736",
"B  c #7F6835",
"V  c #745D40",
"C  c #7F6647",
"Z  c #676054",
"A  c #787468",
"S  c #9B6E06",
"D  c #986C0D",
"F  c #A87800",
"G  c #AD7B03",
"H  c #A47511",
"J  c #A7781A",
"K  c #85612A",
"L  c #80662E",
"P  c #816830",
"I  c #816937",
"U  c #826A36",
"Y  c #836B37",
"T  c #8B6832",
"R  c #8B7335",
"E  c #9F7831",
"W  c #93773D",
"Q  c #9B7A38",
"!  c #A67A32",
"~  c #A27B3A",
"^  c #9C7F41",
"/  c #847762",
"(  c #827968",
")  c #837A69",
"_  c #877D69",
"`  c #B88412",
"'  c #AA813B",
"]  c #AA803D",
"[  c #BA8B35",
"{  c #B28639",
"}  c #B0843D",
"|  c #B2873E",
" . c #BA8D3C",
".. c #C8932B",
"X. c #9D8042",
"o. c #988050",
"O. c #9A8150",
"+. c #AF8F44",
"@. c #AE8F48",
"#. c #B38840",
"$. c #B58A40",
"%. c #B78C41",
"&. c #B78C42",
"*. c #B68C43",
"=. c #B88D41",
"-. c #BA8F42",
";. c #BE9243",
":. c #BF9244",
">. c #B5954B",
",. c #B28D50",
"<. c #BE9652",
"1. c #918369",
"2. c #95866F",
"3. c #998669",
"4. c #9C896C",
"5. c #8D8472",
"6. c #8E8573",
"7. c #AD9561",
"8. c #A28E70",
"9. c #C39443",
"0. c #C79D4B",
"q. c #C89E4B",
"w. c #CFA248",
"e. c #DBB349",
"r. c #D9AD5B",
"t. c #D9B352",
"y. c #D7B358",
"u. c #DCB75A",
"i. c #DCB85B",
"p. c #E1B64A",
"a. c #E1B84C",
"s. c #E5BF5E",
"d. c #C2A06A",
"f. c #CAA971",
"g. c #D1AD74",
"h. c #D8B272",
"j. c #D7B47D",
"k. c #D9B67B",
"l. c #DCB678",
"z. c #DEB97B",
"x. c #EFC451",
"c. c #F0C650",
"v. c #F1C855",
"b. c #E9C360",
"n. c #EDC460",
"m. c #F0C862",
"M. c #F3C963",
"N. c #F1C965",
"B. c #FED568",
"V. c #FFD86B",
"C. c #FFDE6E",
"Z. c #FFDE73",
"A. c #FFE16C",
"S. c #FFE470",
"D. c #A6A193",
"F. c #FFD982",
"G. c #FFE189",
"H. c #FFE688",
"J. c #FFE58C",
"K. c #FFE98D",
"L. c #FFF394",
"P. c #DDCCA7",
"I. c #DDD3B6",
"U. c #EEDDB6",
"Y. c #E6D9B9",
"T. c #F3E0B2",
"R. c #F3E0B3",
"E. c #FEE6B3",
"W. c #F8E4B6",
"Q. c #F5E2BA",
"!. c #F3E1BD",
"~. c #EEE2C2",
"^. c #F0E5C6",
"/. c #FFEFC1",
"(. c #FFECC3",
"). c #FEEDC7",
"_. c #F2E9CC",
"`. c #F7ECCD",
"'. c #FFEFCB",
"]. c #FFFFD0",
"[. c #FFFCD9",
/* pixels */
"                                                                ",
"                                                                ",
"                                                                ",
"                                                                ",
"                                                                ",
"                                                                ",
"                                                                ",
"                                                                ",
"                                        . . . =                 ",
"                                        ( 2.C 6                 ",
"                                    . A I.Q.g.S 5 .             ",
"                                    > 8.Y.U.f.H K 9             ",
"            < ; * # * * # * * # o 9 ! @.4.( v l ' ~ t #         ",
"            : 1 0 w q r y y a a t T 9.[ 3 . . u -.:.x #         ",
"            = 8 D G F J ! ' $.&.*. ...`     o a &.-.g #         ",
"            . V d.z.k.h.r.w.:.| { <.k.j.    o g $.| d *         ",
"            . / P.(.'.E.F.p.Q 4 2 3.!.'.    . a ' | a *         ",
"            . 6.~.[._.R.H.v.R . . _ (.].    . z q.q.b #         ",
"            . 6.^.`.D.7.Z.A.    . o.J.L.    . M n.M.W .         ",
"            . 1.W.T.Z > t.N.    . n e.x.    Y @.b.u.U .         ",
"            . o.G.K.    m N         f +.m.S.B.s.>.k             ",
"            o L p.c.    . .         . h u.C.V.y.h .             ",
"                n P                     N X.^ B                 ",
"                . .                     . . . .                 ",
"                                                                ",
"                                                                ",
"                                                                ",
"                                                                ",
"                                                                ",
"                                                                ",
"                                                                ",
"                                                                "
};
