/* XPM */
static char *_f9f8da7b4ce49b7cf220ef165cbb54bKkaEspD08Xm29kS1[] = {
/* columns rows colors chars-per-pixel */
"32 32 47 1 ",
"  c #3A152B",
". c #361831",
"X c #371932",
"o c #3A1930",
"O c #3B1B32",
"+ c #391B34",
"@ c #391A35",
"# c #3B1E35",
"$ c #3B1E36",
"% c #3B1F37",
"& c #3C1F37",
"* c #3C1F38",
"= c #3C2037",
"- c #3C2038",
"; c #3E213A",
": c #3F223B",
"> c #402037",
", c #422239",
"< c #41243C",
"1 c #42253D",
"2 c #43263E",
"3 c #43273F",
"4 c #44273F",
"5 c #442740",
"6 c #54384C",
"7 c #573A4F",
"8 c #583A4F",
"9 c #433551",
"0 c #443551",
"q c #443653",
"w c #463754",
"e c #473854",
"r c #473855",
"t c #463E5D",
"y c #593B51",
"u c #593C51",
"i c #624459",
"p c #494566",
"a c #4A4768",
"s c #4A486A",
"d c #4B486A",
"f c #4D4869",
"g c #6B4C60",
"h c #6C4D62",
"j c #6E4F63",
"k c #6F4F63",
"l c #6E4F64",
/* pixels */
"ghhhhhklsssssssshhhkhhkifdssssap",
"hi77uu7yrr000e09uy887888rr99e0ta",
"l7+;XX=;oo,>Oo,,XX;;X.=;=o,,O 0s",
"h7;4=&45$=42==25&&24&=42=;23=Oes",
"hyX=22$$22$$22$$2<$$<2$=22$$4,9s",
"lyX&22$$22$$22$$22$$22$$22$$4,0s",
"hy;4$$22$$22$$22$$2,$$2<$$22=ors",
"i8;4$$22$$22$$22$$22$$<2$$24$+es",
"fr&;22$$22$$22$$24==<4$$22$$4;7i",
"dr$$22$$22$$22$$2<=+4<+=22$$4;uk",
"f0&4$$22$$22$$22O=4<=+22$$22&Xul",
"s0>4$$22$$22$$22+=<<==22$$22&$uk",
"seo&42$$22$$22$$<3+=22$$22$$4;7h",
"s0+=22$$22$$22$$4<==22$$22$$4;8h",
"s0,4$$22$$22$$22=O<<$=22$$22-Xyh",
"f9,4$$22&&22$$22+=<2$$:2$$22-ouh",
"h8+=22$&,;$$22$$42=+2<==,2+=3,0s",
"h8X=22$=2,$$<2$$22==<,=+22==<,0s",
"k7;4$+;2$$22;;<2=+22==3<==<2=Oes",
"h7;4O=22-$22=;22O=22+=4,+=2<=+es",
"hu$$>4&$22$$22$$4:+=,<==>4&&2,0a",
"kuX=44$$22-$22$$23==22+=4<+=4>9f",
"h7;2==24+=;2&$22=+<2==<2=&<,=+es",
"h7;4=+2<==;;=$22==2<+=<2$&44$+es",
"seo$22$$22&&22$$2,$-22$$22$$2;7i",
"se$=22$$22$$22$$22$$,2$$22$$3;uk",
"s9,2$$22$$22$$22$$22$$22$$22$oul",
"s0,2$$22$$22$$22$$2:$$,2$$22-$uk",
"se+;24=&25=&32$;24==55%%52-%5:7l",
"s0 o=,oo;-XX;;XX==o$,,X$;;XX,+6l",
"st9r00ee77uu77uu00e099ee77yy76ig",
"passddddkkkhhhlhfsaadddsggllllgg"
};
