/* XPM */
static char *_da52d83ca8c494596b460b641db2dc2y7KuPVlZlYKtyOEY[] = {
/* columns rows colors chars-per-pixel */
"32 32 95 2 ",
"   c #43384C",
".  c #473B4E",
"X  c #473C4E",
"o  c #493D4F",
"O  c #4E4251",
"+  c #4F4351",
"@  c #504452",
"#  c #564955",
"$  c #574857",
"%  c #584C54",
"&  c #5B4D55",
"*  c #5B4E56",
"=  c #5C4D55",
"-  c #5D4E56",
";  c #5E4E5B",
":  c #5F4E5B",
">  c #5C5055",
",  c #5D5055",
"<  c #5F5257",
"1  c #5F5058",
"2  c #605258",
"3  c #605358",
"4  c #62535B",
"5  c #63555A",
"6  c #64555B",
"7  c #64535C",
"8  c #66565C",
"9  c #67565D",
"0  c #68575E",
"q  c #69585E",
"w  c #6A595F",
"e  c #6B5960",
"r  c #6D5B61",
"t  c #6F5D62",
"y  c #705C64",
"u  c #735C67",
"i  c #755F68",
"p  c #736264",
"a  c #736364",
"s  c #756067",
"d  c #756565",
"f  c #756666",
"g  c #756069",
"h  c #79606C",
"j  c #7B636C",
"k  c #7B636D",
"l  c #7C636D",
"z  c #7E636F",
"x  c #7B656C",
"c  c #7D656E",
"v  c #7E656E",
"b  c #806670",
"n  c #826872",
"m  c #846A72",
"M  c #856B73",
"N  c #836C71",
"B  c #866E73",
"V  c #886F75",
"C  c #887075",
"Z  c #8B7277",
"A  c #8C7377",
"S  c #8D7279",
"D  c #8D7578",
"F  c #8E7578",
"G  c #8F7779",
"H  c #8F777A",
"J  c #90777B",
"K  c #91787A",
"L  c #91787B",
"P  c #937B7B",
"I  c #937C7C",
"U  c #957D7D",
"Y  c #977F7F",
"T  c #96827C",
"R  c #99837F",
"E  c #9A8380",
"W  c #9D8782",
"Q  c #9C8A80",
"!  c #9F8A83",
"~  c #9F8C81",
"^  c #A08B83",
"/  c #A18A84",
"(  c #A18B84",
")  c #A38E85",
"_  c #A38F85",
"`  c #A48E86",
"'  c #A58F87",
"]  c #A49086",
"[  c #A59187",
"{  c #A69387",
"}  c #A79387",
"|  c #A79388",
" . c #A89588",
".. c #A99589",
"X. c #AB988A",
/* pixels */
". O * 2 - * - * * * * & = = , , = = = = > > & = = = > & 3 , + o ",
"O # 7 t p f f p f f f d d d f f d d d d f d d d d d f a q 8 # + ",
"* 7 u B R R R R ! Q T ! R R R R R R R R ! R R R R R R R B u 2 - ",
"2 t B Y ] } } } ) )  .] } (  .} } } } } } { } ( } } X.( E B t 2 ",
"- a T ! I D A A Z Z D Z D Z Z Z G A D D A A A A V A A P ! T p - ",
"* f ! } D b V Z Z Z Z Z Z Z Z Z A A D D C A Z Z S A b A | ! f * ",
"& d ~ } Z Z R ^ ! ! ! ! ~ ! ! ! R R ] R ^ ^ ^ ^ ^ R B D } R a - ",
"= d R ) Z D ( .. . . . . . . . .X. .X. . . . . .X.^ A D } R a * ",
"= d R } A Z !  . ._  .}  .]  .]  .] } }  .]  . ...^ Z A ) R f - ",
"= d R ( A A !  .} } ) } ] } ]  .]  .] | ]  .] ] ..^ Z A ) ! f - ",
"= f R  .C D !  .} ) } } ] | } |  .] } ]  .] ]  .} ! Z A } R f & ",
", f R  .D Z !  .] } } } } | ] ] } | | ] } |  .] ..! Z Z } R d = ",
"= d R } D D (  . .] | } ] | | } ] ] | } ] } } } } ! A A } R f 3 ",
"= d R } A A (  .}  .] | ] } ]  .| } | ] } } ] } } ! A A ( R f , ",
"= d R } A A R X. .} | | | ]  .]  .] } ] } } } } X.^ A A  .R f = ",
"= d R  .A C R  .]  .} ) } } ]  .]  .]  .) } } } } R C D } R d = ",
"* f R ) D n Z Y | ...... . . . . . . . .| ....} Y Z B D ..R f - ",
"- f ~ } J v k N E ) ( ( ! ) ! ! ! ! ) ! ( ( ` E B i v D ) ! a * ",
"& d R } J l t u B L H H H H D H L D D H J J L V u t v L } R f - ",
"= d ! ) L l 9 1 i z k k x x x x x x x x k l v i 1 9 i L } R a = ",
"= d R } J l 0 - 9 9 e 9 9 9 e 9 9 9 e 9 7 9 0 9 = 8 b L } ^ f > ",
"= d R } H k y 9 9 9 9 9 e 9 9 7 9 e 9 e 9 9 9 0 8 u j D } R f - ",
", d ` } D z v k k k x k k k v v x k k k x x x k x x v D  .^ f & ",
"> d R R Y D D L H H L D H H H H D H H J H H D J L J D J ! T a & ",
"< t B L ! ) ) ) ) ) ) ! ) ) ) ! | ! ) ) ! ) ) ) _ _ _ ^ P M y 2 ",
"> 8 k S E } ) ) ) ) ) ) ! ) ) ' ! ) ) ) } ) ) ) _ _  .R J u 8 = ",
"o 1 v S D L H L J J H H H H H H D D J J D D J J A G G A A b : o ",
"  # g m B v v x l l k x x v v k v v k k x v x v n n b b n i $   ",
"o @ 8 a m m i 9 e e e t e e e e e e e e t 0 0 u B b u q y 8 @ . ",
"o O # q l x q * < < 1 < 5 < < < 2 1 7 1 2 2 - q v m q > 1 - + o ",
"o @ : 9 q q 5 2 5 1 < 8 1 7 < 5 5 5 5 5 > 2 > e m n w 2 8 1 @ o ",
"o @ > 9 2 2 2 8 8 < 8 < 5 7 8 < 5 7 7 < 5 5 8 q N n w 2 2 2 @ o "
};
